<svg width="24" height="24" viewBox="0 0 24 24" fill="none" xmlns="http://www.w3.org/2000/svg">
<path d="M21.6545 1.03125C16.0655 4.68675 9.1118 6.34627 0.84375 6.12745V6.97139C9.73781 7.20202 17.2256 5.28394 23.1461 1.03125H21.6545ZM22.8669 2.69264L18.9234 4.86028L23.0628 7.71998L22.867 2.69264H22.8669ZM17.7338 5.38702L13.4195 6.66661L16.8562 10.341L17.7338 5.38706V5.38702ZM11.7104 7.05066L7.25883 7.70958L10.1435 11.8316L11.7104 7.05066ZM5.46 7.81781L0.962063 7.95459L3.34777 12.3841L5.46 7.81781ZM0.84375 13.0997V13.9745C11.6963 16.9406 18.1348 17.7862 23.1562 17.9554V17.1117C18.1671 16.9431 11.7677 16.0985 0.84375 13.0997V13.0997ZM2.87714 15.5018L4.00462 20.405L7.25072 16.5612L2.87714 15.5018ZM9.95761 17.2591L11.3612 22.0905L14.3841 18.0688L9.95761 17.2591ZM17.1336 18.405L19.0374 23.0621L21.6207 18.7449L17.1336 18.405Z" fill="black"/>
</svg>
