<svg width="35" height="36" viewBox="0 0 35 36" fill="none" xmlns="http://www.w3.org/2000/svg">
<g id="ic:baseline-insights">
<path id="Vector" d="M30.625 12.1665C28.5104 12.1665 27.3291 14.2665 27.8104 15.8269L22.6333 21.0186C22.1958 20.8873 21.5541 20.8873 21.1166 21.0186L17.3979 17.2998C17.8937 15.7394 16.7125 13.6248 14.5833 13.6248C12.4687 13.6248 11.2729 15.7248 11.7687 17.2998L5.11873 23.9353C3.55831 23.454 1.45831 24.6353 1.45831 26.7498C1.45831 28.354 2.77081 29.6665 4.37498 29.6665C6.48956 29.6665 7.67081 27.5665 7.18956 26.0061L13.825 19.3561C14.2625 19.4873 14.9041 19.4873 15.3416 19.3561L19.0604 23.0748C18.5646 24.6353 19.7458 26.7498 21.875 26.7498C23.9896 26.7498 25.1854 24.6498 24.6896 23.0748L29.8812 17.8978C31.4416 18.379 33.5416 17.1978 33.5416 15.0832C33.5416 13.479 32.2291 12.1665 30.625 12.1665Z" fill="#E9EFF7"/>
<path id="Vector_2" d="M21.875 13.625L23.2458 10.6062L26.25 9.25L23.2458 7.89375L21.875 4.875L20.5333 7.89375L17.5 9.25L20.5333 10.6062L21.875 13.625ZM5.10415 16.5417L5.83331 13.625L8.74998 12.8958L5.83331 12.1667L5.10415 9.25L4.37498 12.1667L1.45831 12.8958L4.37498 13.625L5.10415 16.5417Z" fill="#E9EFF7"/>
</g>
</svg>
